<svg width="659" height="519" viewBox="0 0 659 519" fill="none" xmlns="http://www.w3.org/2000/svg">
<path d="M657.948 312.963C657.982 320.879 655.988 330.057 648.295 331.923C647.854 332.03 647.408 332.119 646.957 332.189C642.444 332.891 637.846 331.656 634.29 328.788C618.759 311.432 600.267 318.09 582.247 317.851C550.713 317.851 519.18 315.593 487.404 315.237C455.632 314.88 422.676 315.237 390.666 315.237C388.532 320.722 388.224 326.751 389.782 332.428C391.341 338.101 394.688 343.123 399.318 346.741C416.074 360.623 434.324 372.587 453.734 382.403C481.712 395.003 511.467 403.683 540.628 413.551C552.624 418.897 566.263 419.154 578.446 414.264C583.619 411.768 589.57 411.43 594.992 413.323C600.415 415.216 604.866 419.187 607.373 424.367C609.316 429.326 609.43 434.819 607.688 439.856C605.951 444.889 602.475 449.135 597.889 451.831C588.287 459.559 579.513 459.794 573.35 448.382C565.409 433.761 552.723 432.334 539.444 428.054C506.649 418.514 474.496 406.878 443.184 393.219C412.244 378.716 383.911 359.219 371.343 323.913C370.199 321.784 368.718 319.858 366.958 318.207C365.792 317.564 364.56 317.045 363.281 316.663C347.989 332.237 332.458 348.642 315.861 364.215C308.404 371.608 299.994 377.964 290.85 383.115C253.865 403.443 217.114 424.13 179.057 442.553C141.005 460.98 103.422 475.248 65.4901 491.771C52.9255 497.238 40.8311 503.657 28.6221 510.197C24.2372 512.337 20.681 516.616 16.7689 517.686C11.5078 518.274 6.18842 518.035 1 516.973C2.77812 511.506 2.89544 503.3 6.57276 500.925C21.7767 491.465 37.6226 483.083 53.9922 475.84C89.5556 460.149 126.189 446.833 160.689 430.071C202.419 410.1 243.672 388.108 283.858 365.876C308.553 350.475 330.215 330.651 347.757 307.39C327.128 298.118 309.228 291.577 292.037 282.066C272.752 271.823 254.66 259.463 238.098 245.217C212.372 221.441 188.9 195.643 165.073 169.966C157.916 162.04 151.889 153.158 147.171 143.573C142.309 134.062 138.636 125.977 126.661 121.937C114.687 117.896 114.808 104.106 117.415 92.5728C120.021 81.0433 123.46 68.0832 137.686 65.1128C151.911 62.1424 165.07 82.2311 158.078 96.0213C144.92 122.411 159.501 138.82 173.136 156.886L173.132 156.89C201.693 196.67 236.955 231.147 277.342 258.773C299.196 271.097 321.989 281.67 345.505 290.395C347.283 291.226 350.011 289.799 354.99 288.968C352.775 283.012 350.161 277.215 347.166 271.612C321.795 233.777 301.839 192.56 287.889 149.164C285.283 141.561 280.986 134.649 275.325 128.954C256.238 108.626 256.594 104.226 280.777 89.1303C300.692 98.8762 305.198 103.277 299.625 119.325C294.815 134.245 296.186 150.48 303.42 164.381C318.121 197.546 335.781 229.407 352.379 261.859L357.714 260.551V226.315C355.936 193.149 347.756 160.336 352.496 126.691C353.325 120.746 345.501 114.091 343.961 107.312C341.985 101.797 342.286 95.7237 344.794 90.4286C349.761 86.7483 356.13 85.5241 362.102 87.1013C365.79 88.0278 368.895 90.5094 370.622 93.9065C372.349 97.2999 372.529 101.278 371.113 104.815C353.923 145.708 368.03 186.367 372.298 227.621C398.024 167.348 416.634 104.937 441.294 44.6637C437.976 39.3144 434.42 34.6787 431.93 29.6857L431.926 29.682C429.569 26.2922 428.542 22.1489 429.045 18.0462C429.547 13.9395 431.545 10.1674 434.654 7.45406C438.17 3.95398 442.757 1.73344 447.677 1.15254C452.597 0.571653 457.568 1.6599 461.803 4.24452C470.221 9.35488 469.154 18.0348 466.899 26.2372C465.833 30.0424 465.004 35.7479 462.159 37.1747C443.311 47.1597 445.323 67.2521 439.633 83.3003C430.032 109.929 422.208 137.272 413.672 164.375C406.443 188.151 399.209 210.975 392.452 234.394C390.997 240.336 391.8 246.608 394.703 251.99C399.29 246.879 403.268 241.255 406.56 235.225C419.268 203.372 437.089 173.817 459.315 147.732C462.783 143.309 465.287 138.206 466.662 132.754C473.063 110.761 477.686 108.264 501.396 114.327C507.204 141.909 505.191 145.354 480.532 152.368C476.642 153.115 473.104 155.118 470.457 158.074C458.604 175.431 446.747 193.023 436.317 210.975C431.701 219.501 427.741 228.362 424.46 237.487C421.607 243.829 420.98 250.95 422.682 257.697C440.819 245.81 458.838 233.92 477.097 222.748C492.155 213.237 507.208 203.608 522.739 195.166C527.036 192.64 532.066 191.677 536.99 192.438C541.91 193.196 546.424 195.626 549.767 199.324C558.064 207.527 552.729 216.324 547.751 223.101C545.422 227.575 541.184 230.74 536.242 231.689C531.3 232.637 526.196 231.27 522.383 227.976L511.714 220.487L392.215 296.568C397.095 297.73 402.045 298.565 407.034 299.065C425.648 299.065 444.258 297.52 462.751 298.234C505.786 299.66 548.578 306.554 591.729 301.918C603.806 302.315 615.692 298.815 625.639 291.933C630.577 288.068 636.931 286.51 643.09 287.646C645.574 288.102 647.932 288.98 650.073 290.217" fill="#1A3837"/>
<path d="M646.957 332.189C647.408 332.119 647.855 332.03 648.295 331.923C655.988 330.057 657.982 320.879 657.948 312.963L657.931 308.934C657.9 301.699 656.339 293.835 650.073 290.217C647.932 288.98 645.574 288.102 643.09 287.646C636.931 286.51 630.577 288.068 625.639 291.933C615.692 298.815 603.806 302.315 591.729 301.918C548.578 306.554 505.786 299.66 462.751 298.234C444.258 297.52 425.648 299.065 407.034 299.065C402.045 298.565 397.095 297.73 392.215 296.568L511.714 220.487L522.383 227.976C526.196 231.27 531.3 232.637 536.242 231.689C541.184 230.74 545.422 227.575 547.751 223.101C552.729 216.324 558.064 207.527 549.767 199.324C546.424 195.626 541.91 193.196 536.99 192.438C532.066 191.677 527.036 192.64 522.739 195.166C507.208 203.608 492.155 213.237 477.097 222.748C458.838 233.92 440.819 245.81 422.682 257.697C420.98 250.95 421.607 243.829 424.46 237.487C427.741 228.362 431.701 219.501 436.317 210.975C446.747 193.023 458.604 175.431 470.457 158.074C473.104 155.118 476.642 153.115 480.532 152.368C505.191 145.354 507.204 141.909 501.396 114.327C477.686 108.264 473.063 110.761 466.662 132.754C465.287 138.206 462.783 143.309 459.315 147.732C437.089 173.817 419.268 203.372 406.56 235.225C403.268 241.255 399.29 246.879 394.703 251.99C391.8 246.608 390.997 240.336 392.452 234.394C399.209 210.975 406.442 188.151 413.672 164.375C422.208 137.272 430.032 109.929 439.633 83.3003C445.323 67.2521 443.311 47.1597 462.159 37.1747C465.004 35.7479 465.833 30.0424 466.899 26.2372C469.154 18.0348 470.221 9.35488 461.803 4.24452C457.568 1.6599 452.597 0.571653 447.677 1.15254C442.757 1.73344 438.17 3.95398 434.654 7.45406C431.545 10.1674 429.547 13.9395 429.045 18.0462C428.542 22.1489 429.569 26.2922 431.926 29.682L431.93 29.6857C434.42 34.6787 437.976 39.3144 441.294 44.6637C416.634 104.937 398.024 167.348 372.298 227.621C368.03 186.367 353.923 145.708 371.113 104.815C372.529 101.278 372.349 97.2999 370.622 93.9065C368.895 90.5094 365.79 88.0278 362.102 87.1013C356.13 85.5241 349.761 86.7483 344.794 90.4285C342.286 95.7237 341.985 101.797 343.961 107.312C345.501 114.091 353.325 120.746 352.496 126.691C347.756 160.336 355.936 193.149 357.714 226.315V260.551L352.379 261.859C335.781 229.407 318.121 197.546 303.42 164.381C296.186 150.48 294.815 134.245 299.625 119.325C305.198 103.277 300.692 98.8762 280.777 89.1303C256.594 104.226 256.238 108.626 275.325 128.954C280.986 134.649 285.283 141.561 287.889 149.164C301.839 192.56 321.795 233.777 347.166 271.612C350.161 277.215 352.775 283.012 354.99 288.968C350.011 289.799 347.283 291.226 345.505 290.395C321.989 281.67 299.196 271.097 277.342 258.773C236.955 231.147 201.693 196.67 173.132 156.89L173.136 156.886C159.501 138.82 144.92 122.411 158.078 96.0213C165.07 82.2311 151.911 62.1424 137.686 65.1128C123.46 68.0832 120.021 81.0433 117.415 92.5728C114.808 104.106 114.687 117.896 126.661 121.937C138.636 125.977 142.309 134.062 147.171 143.573C151.889 153.158 157.916 162.04 165.073 169.966C188.9 195.643 212.372 221.441 238.098 245.217C254.66 259.463 272.752 271.823 292.037 282.066C309.228 291.577 327.128 298.118 347.757 307.39C330.215 330.651 308.553 350.475 283.858 365.876C243.672 388.108 202.419 410.1 160.689 430.071C126.189 446.833 89.5556 460.149 53.9922 475.84C37.6226 483.083 21.7767 491.465 6.57276 500.925C2.89544 503.3 2.77812 511.506 1 516.973C6.18842 518.035 11.5078 518.274 16.7689 517.686C20.681 516.616 24.2372 512.337 28.6221 510.197C40.8311 503.657 52.9255 497.238 65.4901 491.771C103.422 475.248 141.005 460.98 179.057 442.553C217.114 424.13 253.865 403.443 290.85 383.115C299.994 377.964 308.404 371.608 315.861 364.215C332.458 348.642 347.989 332.237 363.281 316.663C364.56 317.045 365.792 317.564 366.958 318.207C368.718 319.858 370.199 321.784 371.343 323.913C383.911 359.219 412.244 378.716 443.184 393.219C474.496 406.878 506.649 418.514 539.444 428.054C552.723 432.334 565.409 433.761 573.35 448.382C579.513 459.794 588.287 459.559 597.889 451.831C602.475 449.135 605.951 444.889 607.688 439.856C609.43 434.819 609.316 429.326 607.373 424.367C604.866 419.187 600.415 415.216 594.992 413.323C589.57 411.43 583.619 411.768 578.446 414.264C566.263 419.154 552.624 418.897 540.628 413.551C511.467 403.683 481.712 395.003 453.734 382.403C434.324 372.587 416.074 360.623 399.318 346.741C394.688 343.123 391.341 338.101 389.782 332.428C388.224 326.751 388.532 320.722 390.666 315.237C422.676 315.237 455.632 314.88 487.404 315.237C519.18 315.593 550.713 317.851 582.247 317.851C600.267 318.09 618.759 311.432 634.29 328.788C637.846 331.656 642.444 332.891 646.957 332.189Z" stroke="#8FA99B" stroke-width="0.5"/>
</svg>
