<svg width="215" height="89" viewBox="0 0 215 89" fill="none" xmlns="http://www.w3.org/2000/svg">
<path d="M2.44169 80.864V73.296H4.31369C6.53769 73.296 7.84969 74.784 7.84969 77.088C7.84969 79.392 6.53769 80.864 4.31369 80.864H2.44169ZM1.17769 82H4.32969C7.20969 82 9.09769 80.08 9.09769 77.088C9.09769 74.096 7.20969 72.176 4.32969 72.176H1.17769V82ZM12.2892 72.176H11.0252V82H12.2892V72.176ZM13.9789 79.44C14.3469 81.168 15.8029 82.144 17.7549 82.144C19.7069 82.144 21.1469 81.072 21.1469 79.296C21.1469 77.904 20.2669 77.056 18.6989 76.656L17.0189 76.224C15.9949 75.952 15.4509 75.552 15.4509 74.72C15.4509 73.712 16.3149 73.104 17.4829 73.104C18.7789 73.104 19.5149 73.744 19.8189 74.624H21.0829C20.7149 73.072 19.5149 72.032 17.4829 72.032C15.6269 72.032 14.2509 73.152 14.2509 74.816C14.2509 76.304 15.2429 76.992 16.6029 77.344L18.3629 77.808C19.4989 78.096 19.9309 78.592 19.9309 79.36C19.9309 80.448 19.0349 81.072 17.7549 81.072C16.5549 81.072 15.6269 80.528 15.2589 79.44H13.9789ZM22.5036 77.088C22.5036 80.144 24.4236 82.144 26.9036 82.144C28.9516 82.144 30.3276 80.944 30.7276 79.104H29.4796C29.0796 80.256 28.2636 81.008 26.9036 81.008C25.0156 81.008 23.7676 79.408 23.7676 77.088C23.7676 74.752 25.0316 73.168 26.9036 73.168C28.2636 73.168 29.0796 73.92 29.4796 75.056H30.7276C30.3276 73.232 28.9676 72.032 26.9036 72.032C24.4236 72.032 22.5036 74.032 22.5036 77.088ZM40.9186 77.088C40.9186 74.112 39.0626 72.032 36.4706 72.032C33.8946 72.032 32.0386 74.112 32.0386 77.088C32.0386 80.048 33.8946 82.144 36.4706 82.144C39.0626 82.144 40.9186 80.048 40.9186 77.088ZM39.6546 77.088C39.6546 79.392 38.3746 81.008 36.4706 81.008C34.5826 81.008 33.3026 79.392 33.3026 77.088C33.3026 74.784 34.5826 73.168 36.4706 73.168C38.3746 73.168 39.6546 74.784 39.6546 77.088ZM46.6686 82L50.4606 72.176H49.1806L46.0926 80.336L43.0206 72.176H41.6926L45.4846 82H46.6686ZM52.1221 72.176V82H58.3781V80.864H53.3701V77.52H57.9141V76.4H53.3701V73.296H58.3781V72.176H52.1221ZM63.5244 77.84L66.3404 82H67.7804L64.8844 77.792C66.4204 77.584 67.3804 76.656 67.3804 75.024C67.3804 73.168 66.1324 72.176 64.1644 72.176H60.5164V82H61.7804V77.84H63.5244ZM61.7804 73.28H64.1324C65.4284 73.28 66.1324 73.936 66.1324 75.024C66.1324 76.112 65.4284 76.768 64.1324 76.768H61.7804V73.28ZM78.3638 82L81.4358 74.512V82H82.6358V72.176H81.2598L77.9478 80.24L74.6198 72.176H73.1958V82H74.3958V74.512L77.4998 82H78.3638ZM85.1371 72.176V82H91.3931V80.864H86.3851V77.52H90.9291V76.4H86.3851V73.296H91.3931V72.176H85.1371ZM96.5394 72.176L92.6994 82H93.9794L95.0994 79.04H99.1474L100.283 82H101.563L97.7234 72.176H96.5394ZM97.1154 73.744L98.7154 77.936H95.5154L97.1154 73.744ZM110.855 72.176H109.655V79.648L104.423 72.176H103.223V82H104.439V74.192L109.927 82H110.855V72.176ZM114.615 72.176H113.351V82H114.615V72.176ZM124.737 72.176H123.537V79.648L118.305 72.176H117.105V82H118.321V74.192L123.809 82H124.737V72.176ZM134.034 78.24C133.89 79.952 132.882 81.024 131.17 81.024C129.218 81.024 127.922 79.44 127.922 77.088C127.922 74.736 129.234 73.168 131.138 73.168C132.53 73.168 133.33 73.904 133.746 75.056H135.01C134.61 73.232 133.234 72.032 131.138 72.032C128.626 72.032 126.658 74.016 126.658 77.088C126.658 80.16 128.61 82.144 131.17 82.144C133.57 82.144 135.234 80.448 135.234 77.824V77.152H131.682V78.24H134.034ZM138.424 82V77.728H142.872V76.608H138.424V73.296H143.16V72.176H137.16V82H138.424ZM148.765 82.144C151.005 82.144 152.621 80.8 152.621 78.112V72.176H151.357V77.952C151.357 80.048 150.349 81.024 148.765 81.024C147.181 81.024 146.173 80.048 146.173 77.952V72.176H144.925V78.096C144.925 80.8 146.541 82.144 148.765 82.144ZM154.964 82H161.236V80.864H156.228V72.176H154.964V82ZM173.694 72.176V76.384H168.142V72.176H166.878V82H168.142V77.52H173.694V82H174.958V72.176H173.694ZM185.764 77.088C185.764 74.112 183.908 72.032 181.316 72.032C178.74 72.032 176.884 74.112 176.884 77.088C176.884 80.048 178.74 82.144 181.316 82.144C183.908 82.144 185.764 80.048 185.764 77.088ZM184.5 77.088C184.5 79.392 183.22 81.008 181.316 81.008C179.428 81.008 178.148 79.392 178.148 77.088C178.148 74.784 179.428 73.168 181.316 73.168C183.22 73.168 184.5 74.784 184.5 77.088ZM192.85 82L195.922 74.512V82H197.122V72.176H195.746L192.434 80.24L189.106 72.176H187.682V82H188.882V74.512L191.986 82H192.85ZM199.623 72.176V82H205.879V80.864H200.871V77.52H205.415V76.4H200.871V73.296H205.879V72.176H199.623ZM207.218 79.44C207.586 81.168 209.042 82.144 210.994 82.144C212.946 82.144 214.386 81.072 214.386 79.296C214.386 77.904 213.506 77.056 211.938 76.656L210.258 76.224C209.234 75.952 208.69 75.552 208.69 74.72C208.69 73.712 209.554 73.104 210.722 73.104C212.018 73.104 212.754 73.744 213.058 74.624H214.322C213.954 73.072 212.754 72.032 210.722 72.032C208.866 72.032 207.49 73.152 207.49 74.816C207.49 76.304 208.482 76.992 209.842 77.344L211.602 77.808C212.738 78.096 213.17 78.592 213.17 79.36C213.17 80.448 212.274 81.072 210.994 81.072C209.794 81.072 208.866 80.528 208.498 79.44H207.218Z" fill="#231F20"/>
<path d="M122.568 39.0418C118.571 38.905 112.704 42.9012 108.284 50.6748C103.864 42.9012 97.9978 38.905 94 39.0418" stroke="#231F20" stroke-linejoin="round"/>
<path d="M108.285 50.3657L108.285 -0.000113904" stroke="#231F20"/>
</svg>
