<svg width="1728" height="426" viewBox="0 0 1728 426" fill="none" xmlns="http://www.w3.org/2000/svg">
<path opacity="0.1" d="M926.373 42.5253L906.533 47.2064L888.26 49.1197L857.817 56.0015L826.378 44.1954L799.907 53.7131L775.442 63.9844L756.286 77.3939L716.395 79.9646L698.454 88.1073L693.055 102.486L634.859 80.6318L591.452 92.5652L566.319 102.585L548.258 95.8031L531.868 92.7007L505.325 70.9054L489.271 64.8768L449.379 70.4993L445.579 57.2447L415.144 45.8154L406.569 54.4229C395.826 47.4634 372.667 32.9164 365.977 30.4045C359.288 27.8925 346.103 28.7913 340.346 29.5547L312.332 28.9544L295.274 22.549L272.944 27.1358L236.986 24.3155L230.297 21.8036L214.529 32.2886L180.414 19.4776L168.451 31.0097L110.912 42.9774L100.708 46.7764L65.5897 33.5886L36.9061 32.7372L30.2169 30.2253L10.9381 37.8655L-18.4942 26.813L-64.1999 36.7385L-79.6766 51.5296L-89.0414 48.0129L-104.895 63.8072L-118.273 58.7833L-120.7 63.2135L-165.482 63.5658C-179.322 63.8372 -213.116 63.3815 -237.567 59.3885C-262.017 55.3955 -259.045 59.3353 -254.502 61.8043L-280.937 85.4525L-306.533 101.785L-317.15 92.4566L-365.398 79.6799L-389.862 89.9512L-381.646 468.71L800.548 478.482L800.618 478.482L2117.38 489.366L2109.38 20.1177L2077.83 27.5603L2059.72 29.457L2029.54 36.2787L1998.38 24.5756L1972.14 34.0102L1947.88 44.1919L1928.9 57.4845L1889.35 60.0328L1871.57 68.1044L1866.22 82.3574L1808.53 60.6942L1765.5 72.5234L1740.59 82.4561L1722.68 75.733L1706.44 72.6577L1680.12 51.0526L1664.21 45.0766L1624.67 50.6501L1620.9 37.5111L1590.73 26.1815L1582.23 34.7139C1571.58 27.8151 1548.62 13.395 1541.99 10.905C1535.36 8.41497 1522.29 9.30588 1516.58 10.0626L1488.81 9.46759L1471.91 3.11802L1449.77 7.66479L1414.13 4.86917L1407.49 2.37914L1391.86 12.7726L1358.05 0.0734784L1346.19 11.505L1289.15 23.3683L1279.04 27.134L1244.22 14.0614L1215.79 13.2174L1209.16 10.7274L1190.05 18.301L1160.87 7.34484L1115.57 17.1837L1100.23 31.8459L1090.94 28.3598L1075.23 44.0163L1061.97 39.0362L1059.56 43.4278L1015.17 43.777C1001.45 44.046 967.951 43.5944 943.714 39.6362C919.476 35.678 922.423 39.5834 926.926 42.0308L926.373 42.5253Z" fill="#193128"/>
</svg>
