<svg width="193" height="28" viewBox="0 0 193 28" fill="none" xmlns="http://www.w3.org/2000/svg">
<path d="M11.0177 0.912843L18.9 27.211H16.5064L8.66534 0.912843H11.0177ZM0.948059 27.211V26.7569C1.74592 26.7569 2.47501 26.5505 3.13531 26.1376C3.82312 25.6972 4.24957 24.9404 4.41464 23.867L7.22093 4.25688C7.386 3.18349 7.20717 2.44037 6.68443 2.02752C6.18921 1.58715 5.54266 1.36697 4.7448 1.36697V0.912843H8.21138H9.40818L6.10667 23.867C5.94159 24.9404 6.17545 25.6972 6.80824 26.1376C7.46854 26.5505 8.29392 26.7569 9.28437 26.7569V27.211H4.99241H4.41464H0.948059ZM18.4461 27.211C18.391 26.9358 18.3635 26.7294 18.3635 26.5917C18.281 25.8211 18.2672 24.9954 18.3223 24.1147C18.4048 23.2064 18.6111 22.2431 18.9413 21.2248L25.0078 0.912843H26.6586L18.9413 27.211H18.4461ZM26.2459 27.211V26.7569C27.1538 26.7569 27.9104 26.5505 28.5157 26.1376C29.1485 25.6972 29.3823 24.9404 29.2172 23.867L25.9157 0.912843H27.7316H31.1981V1.36697C30.4003 1.36697 29.74 1.58715 29.2172 2.02752C28.722 2.44037 28.5569 3.18349 28.722 4.25688L31.5283 23.867C31.6934 24.9404 32.1061 25.6972 32.7664 26.1376C33.4542 26.5505 34.197 26.7569 34.9949 26.7569V27.211H31.5283H30.2902H26.2459Z" fill="#F1EFE5"/>
<path d="M40.6365 23.867C40.6365 24.9404 40.9253 25.6972 41.5031 26.1376C42.0809 26.5505 42.7687 26.7569 43.5666 26.7569V27.211H40.1412H38.6968H35.2302V26.7569C36.0281 26.7569 36.7159 26.5505 37.2937 26.1376C37.899 25.6972 38.2016 24.9404 38.2016 23.867V4.25688C38.2016 3.18349 37.899 2.44037 37.2937 2.02752C36.7159 1.58715 36.0281 1.36697 35.2302 1.36697V0.912843H38.6968H40.1412H43.5666V1.36697C42.7687 1.36697 42.0809 1.58715 41.5031 2.02752C40.9253 2.44037 40.6365 3.18349 40.6365 4.25688V23.867Z" fill="#F1EFE5"/>
<path d="M59.7897 25.6835C60.8627 25.6835 61.7019 25.3394 62.3071 24.6514C62.9124 23.9633 63.3389 23.1651 63.5865 22.2569L64.0404 22.3807L62.9674 26.2615L62.7198 27.211H50.9995V25.6835H59.7897ZM46.0472 27.211V26.7569C46.8451 26.7569 47.5329 26.5505 48.1106 26.1376C48.7159 25.6972 49.0186 24.9404 49.0186 23.867V4.25688C49.0186 3.18349 48.7159 2.44037 48.1106 2.02752C47.5329 1.58715 46.8451 1.36697 46.0472 1.36697V0.912843H49.5138H50.9582H54.3835V1.36697C53.5856 1.36697 52.8978 1.58715 52.3201 2.02752C51.7423 2.44037 51.4534 3.18349 51.4534 4.25688V27.211H49.5138H46.0472Z" fill="#F1EFE5"/>
<path d="M78.1383 25.6835C79.2113 25.6835 80.0504 25.3394 80.6557 24.6514C81.2609 23.9633 81.6874 23.1651 81.935 22.2569L82.389 22.3807L81.316 26.2615L81.0684 27.211H69.348V25.6835H78.1383ZM64.3957 27.211V26.7569C65.1936 26.7569 65.8814 26.5505 66.4592 26.1376C67.0644 25.6972 67.3671 24.9404 67.3671 23.867V4.25688C67.3671 3.18349 67.0644 2.44037 66.4592 2.02752C65.8814 1.58715 65.1936 1.36697 64.3957 1.36697V0.912843H67.8623H69.3067H72.732V1.36697C71.9342 1.36697 71.2464 1.58715 70.6686 2.02752C70.0908 2.44037 69.8019 3.18349 69.8019 4.25688V27.211H67.8623H64.3957Z" fill="#F1EFE5"/>
<path d="M93.4061 27.5C89.7745 27.5 86.9544 26.3165 84.946 23.9495C82.9376 21.5826 81.9334 18.2523 81.9334 13.9587C81.9334 11.344 82.4286 9.01835 83.4191 6.98165C84.437 4.91743 85.8402 3.3211 87.6285 2.19266C89.4443 1.06422 91.494 0.5 93.7775 0.5C96.0061 0.5 97.8357 0.967889 99.2663 1.90367C100.697 2.83945 101.742 4.07798 102.403 5.61927C103.063 7.13303 103.393 8.81192 103.393 10.656V11.4817L99.679 11.0275C100.037 9.87156 100.216 8.75688 100.216 7.68349C100.216 5.83945 99.6377 4.38073 98.4822 3.30734C97.3267 2.20642 95.786 1.65596 93.8601 1.65596C92.0718 1.65596 90.4761 2.11009 89.0729 3.01835C87.6698 3.89908 86.5555 5.26147 85.7301 7.1055C84.9323 8.94954 84.5333 11.2339 84.5333 13.9587C84.5333 16.5183 84.946 18.6927 85.7714 20.4817C86.5968 22.2431 87.7385 23.5642 89.1967 24.445C90.6549 25.3257 92.3469 25.7661 94.2728 25.7661C95.6484 25.7661 96.914 25.6147 98.0695 25.3119C99.2526 24.9816 100.587 24.1502 101.165 23.5447V20.2752C101.165 19.1624 101.178 18.7339 100.876 18.2936C100.601 17.8532 100.188 17.5642 99.6377 17.4266C99.115 17.2615 98.3034 17.1101 97.2029 16.9725L90.2284 16.1468V15.6927H103.269C103.269 16.2706 103.269 22.7892 103.269 23.5447C101.701 25.0585 100.436 25.9862 98.8124 26.5917C97.2166 27.1972 95.4146 27.5 93.4061 27.5Z" fill="#F1EFE5"/>
<path d="M118.916 27.211V26.7569C119.659 26.7569 120.278 26.7018 120.774 26.5917C121.269 26.4817 121.585 26.2752 121.723 25.9725C121.86 25.6422 121.695 25.1881 121.227 24.6101L109.755 10.6147V7.47706H110.126C110.126 8.9633 110.553 10.1055 111.405 10.9037C112.286 11.6743 113.386 12.0596 114.707 12.0596C116.468 12.0596 117.816 11.578 118.751 10.6147C119.687 9.65137 120.154 8.50917 120.154 7.18807C120.154 5.64679 119.687 4.47706 118.751 3.6789C117.816 2.85321 116.22 2.44037 113.964 2.44037H109.713V0.912843H114.913C117.362 0.912843 119.274 1.44954 120.65 2.52293C122.025 3.59633 122.713 5.11009 122.713 7.06422C122.713 8.90826 122.067 10.4083 120.774 11.5642C119.508 12.7202 117.678 13.2982 115.285 13.2982C114.569 13.2982 113.882 13.1743 113.221 12.9266L113.18 13.0092C114.143 13.6147 115.051 14.3028 115.904 15.0734C116.784 15.8165 117.665 16.711 118.545 17.7569L126.015 26.7569V27.211H124.116H118.916ZM104.72 27.211V26.7569C105.518 26.7569 106.206 26.5505 106.783 26.1376C107.389 25.6972 107.691 24.9404 107.691 23.867V4.25688C107.691 3.18349 107.389 2.44037 106.783 2.02752C106.206 1.58715 105.518 1.36697 104.72 1.36697V0.912843H108.187H110.126V23.867C110.126 24.9404 110.415 25.6972 110.993 26.1376C111.571 26.5505 112.258 26.7569 113.056 26.7569V27.211H109.631H108.187H104.72Z" fill="#F1EFE5"/>
<path d="M136.596 0.5C139.127 0.5 141.259 1.07798 142.992 2.23394C144.753 3.36239 146.06 4.93119 146.913 6.94037C147.793 8.92202 148.233 11.2064 148.233 13.7936C148.233 16.3807 147.793 18.7202 146.913 20.8119C146.06 22.8761 144.753 24.5138 142.992 25.7248C141.259 26.9083 139.127 27.5 136.596 27.5C134.064 27.5 131.918 26.9083 130.158 25.7248C128.424 24.5138 127.118 22.8761 126.237 20.8119C125.384 18.7202 124.958 16.3807 124.958 13.7936C124.958 11.2064 125.384 8.92202 126.237 6.94037C127.118 4.93119 128.424 3.36239 130.158 2.23394C131.918 1.07798 134.064 0.5 136.596 0.5ZM136.596 26.344C138.521 26.344 140.158 25.7798 141.507 24.6514C142.882 23.5229 143.914 22.0092 144.602 20.1101C145.29 18.1835 145.633 16.078 145.633 13.7936C145.633 11.5367 145.29 9.48624 144.602 7.6422C143.914 5.79816 142.882 4.33945 141.507 3.26605C140.158 2.19266 138.521 1.65596 136.596 1.65596C134.67 1.65596 133.019 2.19266 131.643 3.26605C130.295 4.33945 129.277 5.79816 128.589 7.6422C127.902 9.48624 127.558 11.5367 127.558 13.7936C127.558 16.078 127.902 18.1835 128.589 20.1101C129.277 22.0092 130.295 23.5229 131.643 24.6514C133.019 25.7798 134.67 26.344 136.596 26.344Z" fill="#F1EFE5"/>
<path d="M149.661 4.13303C149.331 3.11468 148.781 2.39908 148.01 1.98624C147.267 1.57339 146.483 1.36697 145.658 1.36697V0.912843H149.125H151.105L159.483 27.211H157.048L149.661 4.13303ZM158.864 27.211C158.864 26.3028 158.933 25.2018 159.07 23.9083C159.208 22.5872 159.442 21.4312 159.772 20.4404L165.178 4.09174C165.426 3.37615 165.398 2.82569 165.096 2.44037C164.793 2.02752 164.339 1.75229 163.734 1.61468C163.156 1.44954 162.509 1.36697 161.794 1.36697V0.912843H166.994H167.448H170.873V1.36697C170.075 1.36697 169.291 1.57339 168.521 1.98624C167.778 2.37156 167.242 3.07339 166.911 4.09174L159.483 27.211H158.864Z" fill="#F1EFE5"/>
<path d="M191.35 5.82569L190.938 5.86697C190.855 4.95871 190.594 4.16055 190.154 3.47248C189.713 2.7844 188.998 2.44037 188.008 2.44037H176.04V0.912843H190.938L191.02 1.86238L191.35 5.82569ZM187.76 25.6835C188.833 25.6835 189.672 25.3257 190.277 24.6101C190.91 23.867 191.35 23.0138 191.598 22.0505L192.052 22.1743L190.938 26.2615L190.69 27.211H176.163V25.6835H187.76ZM171.211 26.7569C172.009 26.7569 172.697 26.5505 173.275 26.1376C173.88 25.6972 174.183 24.9404 174.183 23.867V4.25688C174.183 3.18349 173.88 2.44037 173.275 2.02752C172.697 1.58715 172.009 1.36697 171.211 1.36697V0.912843H174.678H176.617V27.211H174.678H171.211V26.7569ZM185.531 12.3073C186.604 12.3073 187.347 12.0872 187.76 11.6468C188.2 11.1789 188.42 10.656 188.42 10.078H188.874V12.6789V13.3807V15.9817H188.42C188.42 15.4037 188.2 14.8945 187.76 14.4541C187.347 13.9862 186.604 13.7523 185.531 13.7523H176.04V12.3073H185.531Z" fill="#F1EFE5"/>
</svg>
