<svg width="121" height="81" viewBox="0 0 121 81" fill="none" xmlns="http://www.w3.org/2000/svg">
<path d="M60.7481 6.08C63.2181 7.12 65.1681 3.86999 63.0881 2.18C60.8781 0.229994 56.1981 0.619997 53.4681 1.14C44.6281 2.69999 36.8281 9.07 30.4581 15.18C23.5681 21.94 17.4581 29.22 12.3881 37.54C7.18808 45.34 2.24808 54.18 0.688085 63.54C0.0380845 68.09 0.168084 73.03 3.41808 76.54C6.40808 79.66 10.9581 80.18 14.9881 79.79C32.4081 78.36 46.7081 62.24 55.6781 48.85C61.0081 40.92 66.0781 31.69 66.9881 22.2C67.8981 11.28 60.2281 5.95 49.3081 6.47C53.0781 5.04 57.1081 4.52 60.7481 6.08ZM36.0481 14.66C38.5181 12.71 42.0281 10.11 45.5381 8.16C45.4081 10.11 46.8381 11.54 48.3981 11.15C52.4281 10.5 57.6281 9.98 60.7481 12.97C67.3781 18.95 61.7881 31.43 58.6681 37.67C54.5081 46.38 48.6581 53.92 41.5081 60.55C34.7481 66.79 26.8181 72.77 17.4581 74.72C14.3381 75.37 10.3081 75.89 7.31808 73.81C3.93808 71.47 4.32808 66.01 4.97808 62.5C6.66808 53.14 11.3481 44.3 16.6781 36.5C22.2681 28.31 28.3781 20.9 36.0481 14.66ZM58.3187 57.95C55.9787 58.99 58.3187 61.33 60.2687 60.29C61.6987 59.77 62.6087 58.99 64.0387 58.34C66.5087 57.17 68.8487 56.26 71.3187 55.22C72.3587 54.83 74.4387 54.05 76.3887 53.53C76.2587 54.96 75.8687 56.26 75.4787 57.43C75.0887 57.82 74.1787 60.03 73.2687 61.46C72.2287 62.11 71.5787 62.76 71.3187 63.54C70.6687 66.27 73.5287 67.18 75.0887 65.88C79.1187 61.72 84.8387 58.86 89.9087 56.39C93.9387 54.31 98.8787 52.1 103.559 51.58C102.909 54.05 99.6587 57.3 98.6187 58.21C96.5387 60.29 92.8987 63.02 92.8987 66.14C92.8987 73.03 103.559 67.96 106.419 66.53C108.889 65.36 110.969 64.45 113.439 63.02C115.389 62.11 117.079 61.46 118.639 60.55C120.069 59.64 120.069 57.56 118.509 57.56C117.079 57.56 113.699 59.9 112.269 60.55L106.939 62.89C105.119 63.54 99.9187 66.01 97.4487 65.36C97.8387 63.54 101.089 60.55 101.739 59.64C103.689 57.43 105.509 55.74 107.069 53.27C109.929 48.98 106.679 45.99 102.389 47.03C96.2787 48.72 90.4287 52.49 84.8387 55.48C82.6287 56.52 80.2887 57.43 78.0787 58.86L79.6387 55.22C80.1587 53.79 81.8487 52.1 81.1987 50.41C79.1187 45.99 62.2187 55.87 58.3187 57.95Z" fill="#94673D"/>
</svg>
