<svg width="233" height="55" viewBox="0 0 233 55" fill="none" xmlns="http://www.w3.org/2000/svg">
<path d="M8.8292 21.6112C8.5768 20.9171 7.7565 20.5385 7.0624 21.0433C6.0528 21.8636 7.0624 23.4411 7.0624 24.3245C7.0624 25.902 6.81 27.3533 6.2421 28.6784C4.4122 31.1393 2.4561 33.6002 1.131 36.4397C0.1845 38.2065 2.0775 38.4589 3.5288 37.0076C5.8004 34.736 7.8196 31.3286 8.8292 27.9843C9.9019 26.533 10.9746 25.2079 12.1735 23.7566C15.8964 19.2134 20.061 15.0488 24.6042 11.3259C28.4533 8.10777 32.681 5.52067 37.2873 3.81697C38.8648 3.31217 42.2091 1.73467 43.9128 2.93357C45.3641 4.00627 42.9663 7.60297 42.4615 8.61257C40.9471 11.1997 39.0541 13.5344 37.2873 15.9953C34.2585 20.223 31.2297 24.3876 28.1378 28.6153L25.5507 32.1489C25.109 32.843 23.847 33.9157 23.9101 34.8622C23.9732 35.6825 24.8566 36.2504 25.5507 35.8087C26.2448 35.367 26.5603 34.5467 27.002 34.0419C30.0939 30.1928 33.3751 26.533 36.9718 22.9363C40.4423 19.4658 43.9759 16.3108 47.825 13.3451C49.7811 11.8938 51.7372 10.6318 53.9457 9.43287C55.1446 8.73877 56.4697 8.23397 57.7948 7.91847C55.1446 11.2628 48.3929 18.8979 47.6988 19.7182C45.8689 22.1791 43.9759 24.5769 42.777 27.5426C41.7674 29.6249 40.884 32.7799 42.9663 34.4836C45.1117 36.3135 48.7084 35.2408 50.98 34.4205C53.1885 33.6002 55.397 32.7168 57.6055 31.7703C59.5616 30.8238 61.5808 30.1297 63.6 29.1201C64.1048 28.8677 64.1679 28.1105 63.6631 27.8581C63.2214 27.5426 62.9059 27.8581 62.4642 28.0474L59.3092 29.4356C57.2269 30.3821 55.0184 31.3286 52.8099 32.0227C50.6014 32.7168 48.1405 33.4109 45.8689 33.2216C43.5342 33.0323 43.7235 30.8869 44.1652 29.1832C46.1844 21.5481 53.0623 15.7429 58.4258 10.2532C59.2461 9.43287 60.8236 8.17087 61.076 6.84577C61.4546 4.76347 58.4258 5.58377 57.3531 5.89927C52.9992 7.22437 49.087 10.4425 45.5534 13.2189C41.2626 16.6894 37.1611 20.2861 33.312 24.2614C34.2585 22.747 35.3312 21.2957 36.4039 19.7813C39.1172 15.9953 42.4615 12.5879 44.7962 8.54947C45.8058 6.84577 46.7523 5.01587 46.4368 3.05977C45.9951 0.977467 44.039 0.220266 42.0829 0.409567C37.7921 0.661968 33.5644 3.05977 30.0308 5.33137C26.0555 7.91847 22.585 11.0104 19.1145 14.2285C15.5809 17.5097 12.2997 20.9802 9.2709 24.7031C9.2709 23.6304 9.1447 22.6208 8.8292 21.6112ZM61.2199 27.8581C60.2103 28.3629 61.0306 29.3725 61.9771 29.1201C62.7343 28.6784 63.4915 28.2998 64.2487 27.9843C66.0155 27.164 67.8454 26.5961 69.8015 25.8389C68.855 28.7415 67.5299 33.8526 71.0635 33.3478C73.0827 33.0323 74.9757 32.0227 76.8056 31.0762C77.5628 30.6976 82.106 29.2463 81.4119 27.9843C80.9071 26.9116 76.427 29.8142 75.5436 30.1297C74.0923 30.6345 72.2624 31.3286 70.8111 31.1393C70.0539 30.1297 70.8111 28.2367 71.3159 27.164C71.5683 26.4068 72.2624 25.6496 72.4517 24.8924C72.9565 22.3053 68.3502 24.4507 67.5299 24.8293L61.2199 27.8581ZM74.9126 12.0831C74.5971 13.0927 75.8591 14.0392 76.6794 13.3451C77.3735 12.8403 77.4997 11.8307 78.32 11.3259C80.4023 9.87457 83.2418 9.93767 85.7027 10.4425C86.1444 10.5056 86.523 10.1901 86.5861 9.74837C86.6492 8.99117 85.8289 8.92807 85.3241 8.92807C83.8728 8.73877 82.3584 8.67567 80.844 8.73877C78.6355 9.05427 75.796 9.81147 74.9126 12.0831ZM79.7531 27.8581C78.7435 28.3629 79.6269 29.3725 80.4472 29.1832C82.3402 28.2367 84.1701 27.2271 85.8738 26.0913C85.4321 27.1009 85.0535 28.1105 84.738 29.1201C84.2332 30.8869 84.2963 33.7895 86.9465 33.4109C88.3978 33.3478 89.6598 32.6537 91.1111 32.1489L98.4307 29.4356C98.9986 29.1832 100.134 28.6153 99.1879 27.9212C98.4938 27.4795 97.4842 28.2998 96.7901 28.4891C94.4554 29.4987 91.9945 30.3821 89.4705 30.8869C89.2812 30.95 88.6502 31.0131 87.9561 31.0762C87.5775 31.1393 87.1358 31.2024 86.6941 31.2655C86.1893 28.9939 87.7037 26.2806 88.524 24.2614C93.3196 20.7278 97.5473 16.5632 100.892 11.7676C101.775 10.5687 103.92 8.54947 103.289 6.78267C102.785 5.33137 101.144 5.89927 100.198 6.40407C98.2414 7.47677 96.8532 9.36977 95.5912 11.0735C94.0768 13.0296 92.6886 14.9857 91.2373 16.9418C89.9122 19.0241 88.3978 21.2326 87.1989 23.5673C84.738 25.271 82.3402 26.6592 79.7531 27.8581ZM92.5624 19.2134C91.8052 19.9075 90.9849 20.6647 90.2277 21.2326C90.9849 19.9075 91.8052 18.5824 92.7517 17.2573C94.4554 14.9857 96.0329 12.8403 97.989 10.8842C98.6831 10.1901 99.7558 8.99117 100.955 8.42327C100.702 9.11737 100.324 9.74837 100.134 10.1901C99.4403 11.3259 98.7462 12.3355 97.989 13.2189C96.3484 15.3643 94.5185 17.3835 92.5624 19.2134ZM97.6701 27.8581C96.6605 28.3629 97.5439 29.3725 98.3642 29.1832C100.257 28.2367 102.087 27.2271 103.791 26.0913C103.349 27.1009 102.97 28.1105 102.655 29.1201C102.15 30.8869 102.213 33.7895 104.863 33.4109C106.315 33.3478 107.577 32.6537 109.028 32.1489L116.348 29.4356C116.916 29.1832 118.051 28.6153 117.105 27.9212C116.411 27.4795 115.401 28.2998 114.707 28.4891C112.372 29.4987 109.911 30.3821 107.387 30.8869C107.198 30.95 106.567 31.0131 105.873 31.0762C105.494 31.1393 105.053 31.2024 104.611 31.2655C104.106 28.9939 105.621 26.2806 106.441 24.2614C111.237 20.7278 115.464 16.5632 118.809 11.7676C119.692 10.5687 121.837 8.54947 121.206 6.78267C120.702 5.33137 119.061 5.89927 118.114 6.40407C116.158 7.47677 114.77 9.36977 113.508 11.0735C111.994 13.0296 110.606 14.9857 109.154 16.9418C107.829 19.0241 106.315 21.2326 105.116 23.5673C102.655 25.271 100.257 26.6592 97.6701 27.8581ZM110.479 19.2134C109.722 19.9075 108.902 20.6647 108.145 21.2326C108.902 19.9075 109.722 18.5824 110.669 17.2573C112.372 14.9857 113.95 12.8403 115.906 10.8842C116.6 10.1901 117.673 8.99117 118.872 8.42327C118.619 9.11737 118.241 9.74837 118.051 10.1901C117.357 11.3259 116.663 12.3355 115.906 13.2189C114.265 15.3643 112.435 17.3835 110.479 19.2134ZM115.903 27.9212C115.208 28.2367 115.461 29.2463 116.281 29.2463C116.786 29.4356 117.543 28.8046 118.237 28.3629C117.796 29.1832 117.796 30.0666 118.174 31.0131C119.31 33.9157 123.411 33.6002 126.44 32.7799L124.295 38.9006C121.582 42.1187 119.058 45.7154 117.48 49.5014C116.975 50.6372 115.839 53.666 117.859 53.9815C119.436 54.1708 120.32 52.1516 120.824 51.0789C122.023 48.5549 122.97 45.9047 123.979 43.3807L125.62 39.5947C127.324 37.3231 129.28 35.1777 131.488 33.3478C133.444 31.6441 135.4 30.3821 137.609 29.1832C138.051 28.7415 138.303 28.3629 137.735 27.9212C137.041 27.4164 135.59 28.6784 135.148 28.9939C132.309 30.6976 129.785 32.9061 127.513 35.2408L128.396 33.1585C128.712 32.4013 129.595 31.1393 129.027 30.319C127.955 29.3725 126.819 30.95 124.673 31.4548C123.348 31.7703 121.014 31.7072 120.32 30.2559C119.499 28.6153 121.645 27.1009 122.97 26.5961C124.989 25.7758 127.261 25.6496 129.469 25.8389C129.974 25.8389 130.352 25.6496 130.605 25.2079C131.047 24.1352 130.416 23.6935 129.469 23.6935C126.945 23.6935 124.673 24.1352 122.339 24.9555C120.13 25.7758 118.111 26.8485 115.903 27.9212ZM136.35 27.8581C135.846 28.1105 135.846 28.8677 136.35 29.1832C136.855 29.4987 137.612 28.8046 138.117 28.6153C139.253 27.8581 142.408 26.1544 142.471 26.1544C143.796 27.9843 148.718 26.533 149.601 26.3437L149.097 28.426C148.781 29.7511 148.024 31.3917 148.907 32.5906C150.422 34.736 154.649 32.0858 156.416 31.1393L159.066 29.9404C159.571 29.7511 161.275 29.2463 161.275 28.426C161.275 26.9116 159.571 28.1736 159.066 28.3629C157.994 28.8677 156.921 29.4356 155.911 29.8773C152.883 31.0762 151.053 31.6441 150.611 31.1393C149.286 30.0035 151.053 26.7854 151.873 25.4603C152.63 24.2614 152.188 23.1887 150.674 23.6935C149.16 24.64 147.077 25.6496 145.311 25.4603C144.869 25.4603 144.553 25.3972 144.238 25.2079C144.806 24.8924 145.247 24.4507 145.563 23.9459C146.257 22.9994 145.878 21.8005 144.68 21.6112C142.913 21.5481 141.588 23.3149 141.777 24.8924C139.758 26.0913 138.117 26.9116 136.35 27.8581ZM159.441 27.8581C158.936 28.1105 158.81 28.8677 159.377 29.1832C160.008 29.6249 161.397 28.5522 162.091 28.2367C163.921 27.2902 165.751 26.4699 167.707 25.7758L166.508 26.9747C164.867 28.6153 162.091 32.4013 165.435 33.9157C168.211 35.1146 171.493 32.9061 173.449 31.0762L174.837 29.6249C176.667 31.4548 180.011 31.0131 182.472 30.1928C183.103 30.0035 185.879 29.3725 185.248 28.1105C184.744 27.1009 181.841 28.9939 181.021 29.1832C179.569 29.6249 177.866 29.8142 176.541 28.9939C176.225 28.8046 175.973 28.5522 175.783 28.3629C176.73 26.9116 177.235 25.271 176.162 24.1983C175.847 24.009 175.594 23.8828 175.279 23.9459C175.342 23.5042 175.216 23.1887 174.9 22.9363C173.827 22.2422 172.313 22.8101 171.24 23.378C169.537 23.8828 167.707 24.3245 166.003 25.0186L159.441 27.8581ZM168.148 27.2271C169.663 25.9651 171.556 25.0817 173.89 24.8924C173.196 25.8389 173.323 27.2271 173.764 28.2998C173.323 29.057 172.755 29.5618 172.061 30.2559C170.483 31.7072 168.464 32.1489 166.255 31.8334C163.858 31.5179 167.517 27.8581 168.148 27.2271ZM183.583 27.8581C183.141 28.0474 183.015 28.426 183.204 28.8677C183.646 29.5618 184.277 29.1832 184.782 28.9939C185.98 28.2998 187.116 27.7319 188.441 27.2271C189.64 26.7854 190.713 26.4068 191.912 25.9651C190.839 27.6688 190.082 29.3725 189.64 31.0762C188.441 34.9253 192.921 33.9788 194.688 32.843C195.887 32.1489 197.086 31.3917 198.285 30.3821C198.79 30.8238 199.484 31.0762 200.304 31.1393C202.008 31.3286 203.712 30.95 205.415 30.5083C206.362 30.319 208.949 29.8773 209.454 28.8677C209.895 28.2998 209.201 27.5426 208.507 27.8581C207.75 28.2998 206.993 28.6153 206.046 28.8046C204.216 29.4987 201.377 30.2559 199.421 29.4356C200.493 28.4891 201.44 27.5426 202.134 26.3437C202.639 25.3972 202.954 24.0721 201.692 23.7566C200.62 23.4411 199.547 24.3245 198.853 25.0186C197.654 26.2175 197.149 27.7319 197.338 29.057L196.771 29.4987C196.076 30.0035 190.334 33.6633 191.533 30.319C191.786 29.7511 192.038 29.1201 192.354 28.6153C193.048 27.5426 193.679 26.533 194.625 25.5865C195.319 25.0186 196.455 23.9459 195.193 23.1887C194.499 22.747 193.679 23.378 192.985 23.6935C189.893 25.0186 186.801 26.533 183.583 27.8581ZM208.541 27.8581C208.036 28.0474 207.973 28.8046 208.478 29.1201C209.172 29.5618 209.866 28.8046 210.307 28.6153C211.002 28.1736 211.885 27.6057 212.831 27.164C212.642 27.7319 212.831 28.426 213.021 29.1201C214.03 32.7799 217.943 33.7895 221.224 33.1585C223.117 32.6537 225.01 32.0227 226.966 31.2655L230.121 29.8773C230.689 29.6249 231.572 29.4987 232.014 28.8046C232.519 28.0474 231.572 27.6688 231.004 27.8581C230.247 28.2998 229.301 28.6153 228.48 29.057C226.65 29.8773 224.694 30.5083 222.675 30.95C219.836 31.4548 215.292 31.3917 214.598 27.6688H214.851C216.681 27.8581 218.574 27.3533 220.088 26.4068C221.034 25.8389 224 24.1352 222.801 22.747C221.981 21.6743 220.151 21.6112 218.952 21.8005C216.681 22.2422 214.472 23.4411 213.399 25.3972C211.696 26.0913 210.055 27.1009 208.541 27.8581ZM214.977 26.0913C215.671 24.3876 218.132 22.747 220.403 23.5673C218.952 25.0186 216.996 26.0282 214.977 26.0913Z" fill="#F1EFE5"/>
</svg>
