<svg width="1197" height="261" viewBox="0 0 1197 261" fill="none" xmlns="http://www.w3.org/2000/svg">
<g clip-path="url(#clip0_0_274)">
<path d="M63.1107 231.595L36.9089 179.101L47.1519 168.733L48.3404 169.899C43.0547 175.253 43.3377 176.543 46.7784 179.939L81.0389 213.792C84.4797 217.187 85.77 217.459 91.0556 212.105L92.244 213.271L77.2133 228.483L76.0249 227.317C81.3672 221.907 81.0842 220.616 77.6434 217.221L41.2438 181.251L41.074 181.421L69.7659 238.613L68.0908 240.299L11.5672 212.411L11.3974 212.58L47.3444 247.882C50.7851 251.278 52.0188 251.606 57.3045 246.139L58.5495 247.362L45.0807 261L43.8923 259.834C49.2345 254.424 48.895 253.191 45.4542 249.795L11.1937 215.942C7.75294 212.547 6.51925 212.218 1.17701 217.628L-0.0114136 216.463L10.3448 205.982L62.9296 231.776L63.0994 231.607L63.1107 231.595Z" fill="#231F20"/>
<path d="M114.507 190.77C116.047 194.391 117.11 197.289 114.247 199.541C111.259 201.895 108.633 200.22 106.234 197.176L105.305 195.987L105.181 196.089C105.588 198.794 106.652 205.517 101.604 209.49C97.2468 212.919 92.6742 211.471 89.0976 206.921C82.9292 199.077 87.2188 191.46 90.9765 183.673L92.7648 180.051L90.32 176.939C86.9924 172.706 83.8573 169.627 79.0696 173.396C76.3306 175.546 75.1761 178.568 76.7494 180.56C77.8812 181.998 79.794 181.998 80.9258 183.424C81.8087 184.545 81.5257 185.982 80.1562 187.057C78.5943 188.28 76.5909 187.646 74.5763 185.088C71.2939 180.911 72.8672 175.343 77.9717 171.336C83.0763 167.318 88.5317 167.465 93.9758 174.381L109.889 194.618C111.508 196.678 112.413 197.572 113.534 196.689C114.473 195.953 114.168 194.674 113.217 191.8L114.53 190.77H114.507ZM103.744 193.995L94.338 182.043L92.6176 185.62C89.5164 192.184 88.1243 198.228 92.1423 203.333C94.8813 206.819 97.858 207.396 100.54 205.291C103.347 203.084 103.891 199.937 103.755 193.995H103.744Z" fill="#231F20"/>
<path d="M144.852 173.781L140.121 181.489L138.91 181.251L135.129 175.671L134.869 175.852C135.027 181.591 134.212 185.484 130.67 187.884C123.845 192.502 115.481 187.929 108.678 177.901C101.65 167.533 98.7522 155.627 106.947 150.069C110.161 147.896 114.077 148.304 117.167 149.458L117.303 149.368L107.207 134.473C104.411 130.341 104.049 129.527 101.638 133.465L100.201 132.616L104.932 124.909L106.143 125.146L137.834 171.914C140.63 176.045 140.992 176.86 143.403 172.921L144.84 173.77L144.852 173.781ZM124.15 159.475C119.035 151.925 113.126 149.141 108.927 151.982C102.634 156.249 106.483 165.892 111.734 173.634C117.869 182.689 124.569 187.623 129.685 184.16C133.624 181.489 133.431 177.12 133.273 172.921L124.162 159.475H124.15Z" fill="#231F20"/>
<path d="M161.331 146.957C166.583 158.309 165.225 166.107 159.916 169.265C152.763 173.51 144.274 168.043 137.563 156.725C131.338 146.232 130.353 134.937 137.778 130.523C144.116 126.765 151.948 131.428 157.969 141.581L140.256 152.084L141.15 153.589C146.368 162.384 153.782 168.213 158.818 165.213C162.157 163.233 163.708 158.083 159.916 147.794L161.342 146.946L161.331 146.957ZM139 149.696L152.559 141.649C148.881 135.446 143.573 130.217 138.932 132.967C134.575 135.559 135.571 142.52 139 149.696Z" fill="#231F20"/>
<path d="M166.922 99.8611C164.727 95.3791 164.489 94.5189 161.557 98.0728L160.256 97.0316L166.028 90.0708L167.194 90.4669L179.78 116.239L180.063 116.103C180.855 110.863 182.564 106.414 186.548 104.468C192.739 101.446 200.209 106.256 205.495 117.076C211.267 128.893 211.686 141.829 203.571 145.802C198.806 148.134 194.098 147.172 189.604 146.277L166.922 99.8611ZM202.1 143.516C208.574 140.347 206.197 129.696 202.1 121.298C196.678 110.195 191.358 106.347 186.876 108.542C182.813 110.523 181.749 115.016 180.968 118.661L192.581 142.441C195.297 143.674 199.044 145.021 202.1 143.516Z" fill="#231F20"/>
<path d="M223.944 146.504C225.619 145.78 226.785 146.493 227.736 147.285C228.754 148.055 229.309 148.338 230.395 147.862C233.157 146.674 233.157 141.671 231.199 131.723L208.019 104.185C204.861 100.461 203.424 100.122 200.515 101.378L199.825 99.7823L213.361 93.9534L214.052 95.5493C209.173 97.6545 209.592 98.4241 212.716 102.25L230.078 123.324L225.732 96.6358C224.94 91.8029 224.6 90.9993 219.722 93.1045L219.032 91.5086L230.384 86.6191L231.074 88.215C228.086 89.5053 227.487 90.7051 228.211 95.5719L233.564 128.814C235.036 138.446 237.503 149.379 230.01 152.605C226.74 154.02 223.48 153.261 222.348 150.647C221.658 149.051 222.257 147.24 223.933 146.516L223.944 146.504Z" fill="#231F20"/>
<path d="M279.132 94.1002C283.24 105.758 284.157 112.504 277.819 114.779C272.748 116.601 268.629 114.043 265.086 104.207L256.258 79.6807L250.066 81.9104L249.15 79.3751C255.533 76.9983 256.405 73.5688 253.813 65.6573L255.601 65.0122L259.438 75.674L268.459 72.4257L269.376 74.961L260.355 78.2093L268.187 99.9744C271.005 107.807 273.077 112.617 277.547 110.998C281.124 109.708 281.43 105.645 277.547 94.6548L279.109 94.0889L279.132 94.1002Z" fill="#231F20"/>
<path d="M284.983 72.9576L285.21 72.8897C286.647 68.0228 289.001 63.9369 293.076 62.6353C298.509 60.8923 301.78 64.3443 303.704 70.377L311.265 93.9983C312.759 98.6727 313.607 99.4877 318.056 98.0616L318.565 99.6461L304.609 104.117L304.1 102.532C308.401 101.151 308.616 100.008 307.122 95.3225L299.561 71.7012C298.135 67.2531 295.974 65.4422 292.884 66.4382C289.635 67.4795 287.383 71.3617 285.81 75.5268L293.54 99.6687C295.034 104.343 295.883 105.158 300.105 103.811L300.614 105.396L286.726 109.833L286.217 108.248C290.597 106.845 290.812 105.701 289.307 101.016L274.627 55.1426C273.111 50.3889 272.986 49.506 269.591 52.6752L268.425 51.3849L275.137 45.3296L276.302 45.8729L284.972 72.9576H284.983Z" fill="#231F20"/>
<path d="M315.249 79.1037C311.944 67.1176 314.886 56.0257 324.428 53.3999C333.901 50.7853 342.107 58.7987 345.412 70.7848C348.694 82.7029 345.763 93.7835 336.289 96.3981C326.748 99.0352 318.531 91.0219 315.249 79.115V79.1037ZM340.353 71.1922C336.153 59.8626 329.679 54.2487 323.488 56.535C317.32 58.8892 316.097 67.2874 320.319 78.6962C324.586 90.0145 330.992 95.6398 337.161 93.2742C343.352 90.9879 344.552 82.5218 340.353 71.1922Z" fill="#231F20"/>
<path d="M352.327 75.2327L353.946 74.8479C356.662 82.4198 361.529 87.0377 366.996 85.7248C370.618 84.8533 371.568 82.0237 370.674 78.3226C369.395 73.003 364.732 70.547 358.892 67.2986C353.346 64.2313 349.011 61.7753 347.743 56.5349C346.544 51.5322 349.249 46.8804 354.331 45.658C359.265 44.4696 361.54 47.186 362.774 46.8804C363.623 46.6767 363.431 45.907 363.068 44.3677L364.687 43.9829L367.652 56.3085L366.034 56.6934C363.725 51.1361 359.82 47.1068 355.191 48.216C351.49 49.1101 351.06 52.3924 351.546 54.3957C352.565 58.6288 356.73 61.0509 361.857 63.7333C369.871 67.9211 373.119 70.5583 374.545 76.4891C376.107 82.9631 372.621 87.1396 367.845 88.2827C362.457 89.5843 359.628 87.0038 358.168 87.3546C357.24 87.581 357.194 88.4072 357.568 89.9465L355.949 90.3313L352.316 75.2327H352.327Z" fill="#231F20"/>
<path d="M402.796 61.764C404.097 74.2028 400.283 81.1409 394.228 82.4086C386.079 84.1063 379.819 76.1835 377.137 63.3146C374.647 51.3738 377.375 40.3611 385.83 38.5954C393.039 37.0901 398.936 44.0395 401.347 55.5955L381.178 59.7946L381.529 61.5037C383.611 71.509 388.738 79.4205 394.488 78.2321C398.291 77.4398 401.426 73.0596 401.166 62.1148L402.796 61.7753V61.764ZM380.782 57.1235L396.22 53.9091C394.748 46.8465 391.421 40.18 386.146 41.2779C381.178 42.3078 379.876 49.2233 380.793 57.1235H380.782Z" fill="#231F20"/>
<path d="M470.558 27.6506C467.423 28.1146 466.382 29.1559 465.748 34.0567L460.926 71.0562L458.414 71.4297L448.669 50.1287L445.319 73.3765L442.738 73.7613L425.84 39.9196C423.655 35.4375 422.354 34.8264 419.151 35.313L418.89 33.5927L433.468 31.4196L433.729 33.1399C428.477 33.9209 428.749 34.6792 430.944 39.1613L443.666 64.8991L443.904 64.8651L446.643 45.6353L442.851 37.3843C440.825 32.9588 439.524 32.2684 436.309 32.7551L436.049 31.0347L450.151 28.9295L450.412 30.6499C445.556 31.3743 445.76 32.2232 447.797 36.7278L459.229 61.8545L459.466 61.8205L463.077 34.4529C463.711 29.552 463.654 28.6805 458.414 29.4615L458.153 27.7411L470.298 25.9302L470.558 27.6506Z" fill="#231F20"/>
<path d="M480.609 30.7969L480.847 30.7743C483.223 26.2922 486.347 22.7609 490.592 22.2968C496.262 21.6743 498.775 25.7037 499.465 32.0079L502.17 56.6592C502.702 61.5374 503.37 62.5108 508.011 62.0014L508.192 63.6539L493.625 65.2498L493.444 63.5973C497.937 63.1106 498.367 62.0241 497.835 57.1346L495.13 32.4833C494.621 27.8315 492.867 25.6357 489.641 25.9866C486.257 26.3601 483.28 29.7103 480.903 33.4793L483.665 58.6852C484.197 63.5634 484.865 64.5367 489.279 64.0501L489.46 65.7025L474.972 67.2871L474.791 65.6346C479.364 65.1366 479.794 64.05 479.262 59.1719L474.01 11.2955C473.467 6.33804 473.524 5.45521 469.574 7.87733L468.691 6.38332L476.478 1.78809L477.519 2.54641L480.62 30.8195L480.609 30.7969Z" fill="#231F20"/>
<path d="M508.995 42.8173C508.033 30.4124 513.047 20.0901 522.917 19.3318C532.707 18.5735 539.238 28.0016 540.2 40.4065C541.151 52.7321 536.148 63.0431 526.346 63.8014C516.477 64.5597 509.946 55.1316 508.995 42.8173ZM535.152 39.8405C533.194 27.9111 527.908 21.1653 521.4 22.2293C514.892 23.3724 512.096 31.3745 514.055 43.3832C516.092 55.3013 521.298 62.0584 527.806 60.9152C534.326 59.8513 537.11 51.77 535.163 39.8405H535.152Z" fill="#231F20"/>
<path d="M576.226 19.1508C570.046 19.3545 567.205 26.8925 567.59 38.6975C567.964 50.095 572.083 57.4179 578.58 57.2029C582.938 57.0557 585.745 53.3207 587.465 42.8852L589.129 42.8286C588.246 54.6676 584.092 60.8247 577.199 61.0511C568.247 61.3454 563.131 52.4718 562.723 40.0443C562.271 26.0323 567.669 16.74 576.452 16.4457C583.345 16.2193 586.944 22.2067 587.08 26.2473C587.148 28.4657 586.322 29.8352 584.341 29.9031C582.361 29.9711 581.206 28.7374 581.048 26.2021C580.844 22.3199 579.621 19.0376 576.215 19.1508H576.226Z" fill="#231F20"/>
<path d="M623.186 53.6939C622.178 57.4969 621.239 60.4396 617.594 60.4509C613.791 60.4736 612.75 57.5421 612.727 53.66V52.1546H612.558C611.222 54.5428 607.929 60.4962 601.511 60.5302C595.965 60.5528 593.249 56.614 593.226 50.8304C593.181 40.8476 601.239 37.4861 608.992 33.6379L612.626 31.8835L612.603 27.9221C612.58 22.5346 612.003 18.1771 605.903 18.211C602.417 18.2337 599.655 19.9088 599.666 22.4441C599.666 24.2663 601.183 25.4434 601.194 27.2657C601.194 28.6918 600.096 29.6425 598.353 29.6538C596.373 29.6538 595.173 27.9221 595.162 24.6738C595.139 19.3655 599.791 15.9361 606.287 15.9021C612.784 15.8681 616.994 19.3315 617.04 28.1259L617.164 53.875C617.176 56.4895 617.345 57.7572 618.771 57.7459C619.96 57.7459 620.503 56.5461 621.522 53.6939H623.186ZM612.705 49.6193L612.637 34.4075L609.083 36.1732C602.598 39.4555 597.787 43.3603 597.821 49.857C597.844 54.2938 599.836 56.5801 603.243 56.5688C606.808 56.5574 609.174 54.3956 612.716 49.6306L612.705 49.6193Z" fill="#231F20"/>
<path d="M648.323 20.0673C648.29 21.6519 647.158 23.1346 645.256 23.1006C643.672 23.0667 642.97 22.3423 642.517 21.3802C642.212 20.5766 641.827 20.2597 641.114 20.2484C638.737 20.2031 636.949 22.3876 633.768 27.3223L633.304 51.4869C633.214 56.3991 633.983 57.4403 640.955 57.5762L640.921 59.2399L623.57 58.9004L623.604 57.2366C628.2 57.3272 628.777 56.3085 628.867 51.3964L629.377 25.1719C629.467 20.2597 629.648 19.3882 625.415 21.2105L624.736 19.6938L633.044 16.0493L633.972 17.0227L633.847 23.6779H634.085C636.213 20.0786 639.303 16.1738 643.74 16.2644C646.433 16.321 648.38 17.781 648.346 20.0786L648.323 20.0673Z" fill="#231F20"/>
<path d="M676.291 43.6998C674.48 56.0707 669.07 61.8544 662.902 61.594C654.594 61.2318 650.474 52.0074 651.051 38.8669C651.583 26.6771 656.937 16.683 665.573 17.0565C672.93 17.3848 676.936 25.5679 676.416 37.3616L655.839 36.4561L655.76 38.1991C655.307 48.4082 658.329 57.3497 664.192 57.5987C668.074 57.7685 672.183 54.3051 674.639 43.6206L676.302 43.6885L676.291 43.6998ZM656.111 33.7737L671.866 34.4641C672.183 27.2656 670.598 19.9766 665.21 19.739C660.14 19.5126 657.163 25.8848 656.111 33.7737Z" fill="#231F20"/>
<path d="M679.992 58.9685C680.151 56.5124 681.973 55.1995 684.191 55.3466C686.489 55.4937 688.651 57.6895 688.413 61.334C688.13 65.8387 685.697 70.366 679.155 73.4559L679.256 71.7921C682.46 70.1623 685.651 67.2761 685.878 63.6316C685.946 62.5224 685.742 61.9565 685.187 61.9225C684.633 61.8886 684.18 62.7375 682.765 62.6469C680.943 62.5337 679.868 60.802 679.981 58.9798L679.992 58.9685Z" fill="#231F20"/>
<path d="M742.729 8.53404C742.514 10.7411 741.077 11.7145 739.492 11.5673C737.919 11.4202 736.572 10.4129 736.719 8.11527C736.844 5.97611 736.968 3.04467 733.098 2.67116C727.495 2.1392 725.786 7.54935 725.084 14.9628L724.337 22.7725L731.671 23.4742L731.411 26.1566L724.077 25.4549L721.123 56.4557C720.659 61.3452 721.428 62.4544 728.208 63.0996L728.05 64.752L710.936 63.1222L711.095 61.4697C715.667 61.9111 716.324 60.9378 716.788 56.0483L719.742 25.0474L714.615 24.5608L714.875 21.8783L720.002 22.365L720.444 17.7924C721.576 5.88556 725.56 -0.746962 734.15 0.0792737C739.515 0.588597 743.069 4.99142 742.729 8.54536V8.53404Z" fill="#231F20"/>
<path d="M733.98 44.5035C735.486 32.1553 742.413 23.0214 752.248 24.2211C762.005 25.4096 766.543 35.9356 765.049 48.2838C763.555 60.5529 756.628 69.6868 746.872 68.4983C737.036 67.3099 732.498 56.7726 733.98 44.5035ZM760.205 46.7332C760.635 34.6566 756.775 27.0054 750.177 26.7564C743.578 26.598 739.255 33.887 738.813 46.0428C738.462 58.1308 742.243 65.7706 748.853 65.9404C755.451 66.1781 759.775 58.8099 760.205 46.7332Z" fill="#231F20"/>
<path d="M795.416 34.0454C795.178 35.6073 793.854 36.9316 791.975 36.6486C790.413 36.4109 789.814 35.596 789.485 34.5887C789.293 33.7624 788.942 33.3889 788.24 33.2758C785.886 32.9249 783.837 34.849 780.035 39.331L776.424 63.224C775.688 68.0795 776.322 69.2114 783.215 70.264L782.966 71.9051L765.807 69.3132L766.056 67.6721C770.595 68.3625 771.308 67.4231 772.032 62.5675L775.949 36.6373C776.684 31.7817 776.967 30.9442 772.531 32.1892L772.055 30.5933L780.77 28.0693L781.574 29.1559L780.578 35.7318L780.816 35.7658C783.396 32.4722 786.961 29.0088 791.353 29.6652C794.013 30.0727 795.767 31.7704 795.416 34.0454Z" fill="#231F20"/>
<path d="M833.253 63.2468C830.82 75.3687 828.149 81.6277 821.539 80.3375C816.253 79.3075 814.023 75.0065 816.015 64.7408L820.984 39.1502L814.533 37.8938L815.042 35.2453C821.742 36.4677 824.244 33.9664 826.066 25.8398L827.934 26.202L825.772 37.3279L835.177 39.1502L834.668 41.7986L825.263 39.9764L820.86 62.6809C819.275 70.8414 818.585 76.0365 823.259 76.942C826.994 77.6663 829.337 74.3274 831.635 62.9073L833.265 63.2242L833.253 63.2468Z" fill="#231F20"/>
<path d="M848.986 48.0009L849.223 48.0575C852.924 44.5941 857.033 42.2625 861.198 43.2019C866.767 44.4582 867.831 49.0874 866.439 55.2672L860.983 79.4544C859.897 84.2421 860.213 85.3739 864.775 86.4039L864.413 88.0224L850.118 84.7967L850.48 83.1782C854.883 84.1742 855.652 83.2913 856.739 78.5037L862.194 54.3165C863.224 49.7552 862.273 47.1067 859.104 46.3937C855.777 45.6467 851.872 47.8424 848.397 50.638L842.817 75.3685C841.731 80.1562 842.048 81.288 846.382 82.2614L846.02 83.8799L831.805 80.6655L832.167 79.047C836.649 80.0543 837.418 79.1715 838.494 74.3838L849.099 27.3903C850.197 22.5234 850.548 21.7085 846.009 22.7158L845.658 21.018L854.52 19.1958L855.256 20.2597L848.997 48.0009H848.986Z" fill="#231F20"/>
<path d="M871.973 68.6228C875.165 56.6028 883.303 48.5102 892.867 51.0568C902.363 53.5808 905.407 64.6387 902.216 76.6588C899.047 88.5996 890.909 96.6922 881.413 94.1682C871.837 91.6216 868.793 80.5636 871.962 68.6228H871.973ZM897.643 74.463C899.737 62.5562 896.975 54.441 890.479 53.2978C883.959 52.2226 878.674 58.8551 876.557 70.8299C874.531 82.7593 877.225 90.8519 883.744 91.9272C890.241 93.0816 895.549 86.3699 897.643 74.4743V74.463Z" fill="#231F20"/>
<path d="M905.939 83.9934L907.535 84.4801C906.053 92.3916 907.909 98.8317 913.285 100.462C916.85 101.537 919.103 99.5787 920.2 95.9342C921.785 90.7052 919.001 86.2231 915.616 80.4734C912.379 75.0293 909.889 70.7057 911.451 65.5559C912.945 60.6324 917.631 57.9953 922.634 59.5119C927.489 60.9833 928.089 64.4693 929.3 64.8428C930.138 65.0918 930.364 64.3335 930.828 62.8169L932.424 63.3036L928.746 75.4368L927.15 74.9501C927.965 68.9853 926.629 63.5412 922.091 62.1604C918.457 61.0625 916.42 63.6657 915.82 65.6464C914.553 69.8116 916.929 74.0107 919.997 78.9115C924.796 86.574 926.256 90.4901 924.49 96.3303C922.555 102.703 917.45 104.547 912.753 103.121C907.445 101.514 906.313 97.8583 904.875 97.4282C903.97 97.1566 903.506 97.847 903.053 99.3637L901.457 98.877L905.962 84.016L905.939 83.9934Z" fill="#231F20"/>
<path d="M956.26 97.9938C951.043 109.357 944.218 113.398 938.378 111.395C930.5 108.701 929.153 98.6955 933.397 86.2567C937.336 74.712 945.293 66.6195 953.465 69.4151C960.437 71.7919 961.976 80.7786 958.162 91.9498L938.661 85.2947L938.095 86.9471C934.79 96.6243 935.174 106.041 940.72 107.943C944.399 109.199 949.322 107.026 954.676 97.4731L956.249 98.0051L956.26 97.9938ZM939.679 82.7933L954.597 87.8865C956.928 81.0616 957.46 73.6255 952.356 71.8825C947.557 70.2413 942.905 75.527 939.668 82.7933H939.679Z" fill="#231F20"/>
<path d="M996.882 113.274C992.162 124.694 988.336 130.33 982.1 127.795C977.109 125.769 975.751 121.117 979.678 111.417L989.48 87.2641L983.39 84.7967L984.398 82.2954C990.736 84.7854 993.679 82.816 997.029 75.1875L998.795 75.9005L994.539 86.4039L1003.42 90.0031L1002.42 92.5045L993.532 88.894L984.828 110.331C981.704 118.039 980.029 123.007 984.432 124.796C987.952 126.222 990.894 123.403 995.354 112.64L996.893 113.262L996.882 113.274Z" fill="#231F20"/>
<path d="M1015.43 101.502L1015.65 101.604C1019.98 98.9558 1024.46 97.5184 1028.36 99.2841C1033.55 101.638 1033.66 106.392 1031.04 112.164L1020.77 134.744C1018.75 139.215 1018.82 140.381 1023.08 142.316L1022.39 143.833L1009.05 137.766L1009.74 136.25C1013.85 138.117 1014.79 137.404 1016.81 132.933L1027.07 110.353C1029 106.098 1028.62 103.313 1025.65 101.966C1022.55 100.552 1018.27 101.921 1014.31 103.947L1003.82 127.037C1001.78 131.507 1001.86 132.673 1005.9 134.507L1005.21 136.023L991.936 129.991L992.626 128.474C996.814 130.375 997.742 129.662 999.779 125.192L1019.71 81.3332C1021.77 76.7946 1022.28 76.0589 1017.64 76.1268V74.3838L1026.69 74.4064L1027.2 75.5948L1015.43 101.491V101.502Z" fill="#231F20"/>
<path d="M1053.98 154.405C1051.31 157.302 1049.13 159.464 1045.89 157.789C1042.52 156.034 1042.95 152.956 1044.74 149.515L1045.43 148.179L1045.29 148.112C1043 149.606 1037.31 153.341 1031.62 150.387C1026.69 147.829 1026.13 143.075 1028.79 137.936C1033.38 129.074 1042.09 129.844 1050.73 130.048L1054.77 130.183L1056.6 126.663C1059.08 121.876 1060.59 117.756 1055.18 114.949C1052.09 113.342 1048.86 113.545 1047.69 115.798C1046.85 117.416 1047.64 119.159 1046.8 120.778C1046.14 122.046 1044.71 122.374 1043.17 121.57C1041.42 120.653 1041.16 118.559 1042.66 115.685C1045.11 110.976 1050.82 110.105 1056.6 113.093C1062.36 116.081 1064.49 121.117 1060.43 128.916L1048.57 151.767C1047.37 154.088 1046.92 155.287 1048.19 155.944C1049.24 156.487 1050.28 155.695 1052.51 153.635L1053.98 154.405ZM1046.59 145.927L1053.6 132.424L1049.64 132.334C1042.37 132.221 1036.29 133.443 1033.3 139.215C1031.26 143.154 1031.96 146.108 1034.98 147.67C1038.15 149.311 1041.24 148.508 1046.59 145.927Z" fill="#231F20"/>
<path d="M1078.48 154.438C1072.25 165.111 1067.7 170.182 1061.86 166.82C1057.19 164.138 1056.47 159.339 1061.68 150.273L1074.66 127.67L1068.96 124.399L1070.29 122.068C1076.25 125.395 1079.41 123.833 1083.77 116.737L1085.42 117.688L1079.78 127.512L1088.08 132.288L1086.74 134.62L1078.43 129.843L1066.91 149.899C1062.77 157.109 1060.43 161.806 1064.55 164.172C1067.85 166.062 1071.15 163.662 1077.02 153.612L1078.45 154.438H1078.48Z" fill="#231F20"/>
<path d="M1120.96 154.732C1115.87 151.235 1109.1 155.615 1102.41 165.338C1095.95 174.743 1094.92 183.073 1100.27 186.752C1103.86 189.219 1108.34 187.884 1115.93 180.493L1117.3 181.432C1109.57 190.442 1102.56 192.932 1096.88 189.027C1089.5 183.956 1090.64 173.77 1097.68 163.527C1105.63 151.971 1115.5 147.692 1122.74 152.684C1128.42 156.589 1127.77 163.549 1125.48 166.877C1124.22 168.711 1122.74 169.322 1121.11 168.201C1119.48 167.081 1119.29 165.406 1120.66 163.266C1122.8 160.018 1123.77 156.657 1120.96 154.721V154.732Z" fill="#231F20"/>
<path d="M1137.24 211.154C1134.07 213.497 1131.5 215.206 1128.65 212.942C1125.67 210.577 1126.68 207.645 1129.09 204.601L1130.03 203.423L1129.91 203.322C1127.37 204.352 1121.08 206.943 1116.04 202.959C1111.69 199.519 1112.03 194.742 1115.63 190.204C1121.84 182.371 1130.23 184.782 1138.68 186.627L1142.62 187.521L1145.07 184.42C1148.42 180.198 1150.69 176.429 1145.9 172.649C1143.16 170.487 1139.96 170.068 1138.38 172.06C1137.25 173.487 1137.69 175.354 1136.56 176.78C1135.68 177.901 1134.22 177.957 1132.85 176.871C1131.3 175.637 1131.45 173.532 1133.46 170.985C1136.75 166.82 1142.54 167.058 1147.63 171.087C1152.72 175.116 1153.86 180.459 1148.39 187.351L1132.41 207.543C1130.79 209.592 1130.12 210.69 1131.24 211.573C1132.17 212.308 1133.35 211.72 1135.93 210.124L1137.23 211.154H1137.24ZM1131.6 201.431L1141.04 189.502L1137.16 188.653C1130.05 187.17 1123.85 187.216 1119.82 192.309C1117.07 195.784 1117.2 198.817 1119.87 200.933C1122.66 203.152 1125.85 202.948 1131.6 201.431Z" fill="#231F20"/>
<path d="M1177.96 202.111C1176.9 203.288 1175.07 203.661 1173.66 202.382C1172.49 201.318 1172.44 200.311 1172.72 199.292C1173.02 198.489 1172.94 197.991 1172.41 197.515C1170.64 195.92 1167.87 196.395 1162.22 198.025L1146 215.942C1142.71 219.586 1142.61 220.876 1147.77 225.562L1146.65 226.796L1133.78 215.149L1134.9 213.916C1138.3 216.994 1139.4 216.609 1142.71 212.965L1160.31 193.52C1163.6 189.876 1164.3 189.344 1159.92 187.929L1160.41 186.333L1169.07 189.038L1169.14 190.385L1164.66 195.32L1164.85 195.478C1168.82 194.154 1173.71 193.237 1177 196.225C1178.99 198.036 1179.51 200.424 1177.96 202.122V202.111Z" fill="#231F20"/>
<path d="M1182.73 239.337C1172.85 246.999 1164.94 247.418 1160.67 242.936C1154.93 236.914 1158.36 227.407 1167.89 218.341C1176.73 209.932 1187.52 206.434 1193.47 212.693C1198.55 218.036 1195.76 226.705 1187.21 234.843L1173.01 219.926L1171.74 221.125C1164.34 228.177 1160.32 236.699 1164.36 240.955C1167.04 243.773 1172.41 244.124 1181.57 238.125L1182.72 239.325L1182.73 239.337ZM1175.07 218.183L1185.93 229.603C1191.15 224.634 1195.07 218.285 1191.35 214.38C1187.86 210.701 1181.29 213.237 1175.07 218.183Z" fill="#231F20"/>
<path d="M1174.35 252.591C1175.93 251.266 1178.27 251.47 1179.55 252.987C1180.87 254.56 1180.67 256.903 1179.1 258.227C1177.58 259.506 1175.24 259.302 1173.91 257.718C1172.63 256.201 1172.84 253.858 1174.35 252.579V252.591Z" fill="#231F20"/>
</g>
<defs>
<clipPath id="clip0_0_274">
<rect width="1196" height="261" fill="white"/>
</clipPath>
</defs>
</svg>
