<svg width="1256" height="32" viewBox="0 0 1256 32" fill="none" xmlns="http://www.w3.org/2000/svg">
<path opacity="0.2" d="M1255.5 19.2772L1217.44 21.3099H1206.57L1202.94 20.0532H1187.54L1165.79 21.3099L1131.36 20.0532L1033.5 20.0532C1016.28 21.8181 979.403 20.2577 967.795 20.0532C923.757 19.2701 776.105 17.2436 741.056 19.0898L668.637 1.02905C644.926 0.733012 618.98 2.79179 594.141 3.03403C568.099 3.28431 548.11 18.8556 522 19.0898L464.5 5.83556C457.283 5.82748 444.498 14.2833 443.5 19.0898L419.135 24.7305L375.641 21.3099L349.363 27.3356H328.522L306.774 24.7305L122 31.3357L93.5 21.3099L0.5 27.3356" stroke="#FEF4E8" stroke-width="0.5"/>
</svg>
